<svg version="1" xmlns="http://www.w3.org/2000/svg" width="866.667" height="866.667" viewBox="0 0 650.000000 650.000000"><path d="M465.7 89.7c-3.5.9-19.3 9.4-24.2 13-24.7 18-61.4 58-89.6 97.6-13.5 18.9-13.8 19.8-2.8 8.2 30.6-32.3 57.2-58.8 70.3-69.8 2.8-2.3 6.8-5.8 9-7.8 12-10.5 32.5-23 40-24.5 8.3-1.5 11.4 2.2 7.7 9.4-1.1 2.2-5.3 9.4-9.2 15.9-11.4 18.7-16.2 27.2-31.7 55.3-7.8 14.3-29.2 56.3-31.2 61.3-.4 1.2-3.4 7.6-6.5 14.2s-5.2 11.5-4.7 11c.4-.6 5.5-6.3 11.1-12.7 5.7-6.4 10.7-11.8 11.1-12 .8-.3 6.1-4.9 35-30.8 20.4-18.2 26.4-23.6 31.3-28.3 1.6-1.6 7.9-7.4 14.1-13 6.1-5.6 11.6-10.6 12.2-11.2 3.3-3.1 15.4-13.7 18.4-16.1 1.9-1.6 3.7-3.1 4-3.4 2.2-2.5 16.5-11.8 19.7-12.9 9.4-3.1 13 2.3 8.9 13.3-7.5 19.8-31.9 59.2-61.5 99.1-2.1 2.7-8.4 11.4-14.2 19.3-13.7 18.8-14.6 19.9-36.9 49-3.6 4.6-7.4 9.7-8.5 11.2-1.1 1.6-3.6 4.8-5.5 7.2-3.3 4-3.3 4.2-.8 2.5 1.5-.9 6.2-3.8 10.5-6.4 4.3-2.6 8-5 8.3-5.4.3-.4 3.2-2 6.5-3.6 15-7.5 61.6-34.2 67-38.5.6-.5 8.2-5.6 17-11.4 8.8-5.8 18.4-12.4 21.3-14.5 2.8-2.1 7.6-5.6 10.5-7.7 2.8-2.1 9.9-7.3 15.7-11.6 26.1-19.2 26.3-19.3 29.1-15.9 4.7 5.6-4.1 25.3-22 49.3-21.1 28.4-61.2 70.3-106.5 111.5-5.4 5-11.1 10.1-12.6 11.5-6.7 6.1-15.4 13.5-16.1 13.8-.5.2-.9.7-.9 1.1 0 .4 3.3 0 7.3-1 3.9-1 13.8-2.2 21.8-2.8 14.9-1.1 28-3.2 35.3-5.6 2.3-.7 6.1-1.9 8.6-2.5 4.7-1.2 24.7-8.5 38.3-13.9 8.9-3.5 15.3-5.2 17.3-4.4 2.1.8 1.7 6.8-.7 11.4-1.9 3.9-12.1 16.3-18.5 22.4-15.3 15-35.4 31.7-54.8 45.6-4.9 3.5-11.2 8.1-14 10.1-7.7 5.7-14 10.1-30.5 21.4-6.1 4.3-38.1 25-42.2 27.4-2.7 1.7-5.5 3.5-6.2 4.1-.7.6-7.9 5.3-16.2 10.5-8.2 5.2-15.4 10-16 10.5-1.5 1.6 34.3-16.9 48.5-25.1 12.6-7.2 36.6-21.4 46.3-27.4 5.4-3.4 11.2-7 13-8 4.3-2.6 29.7-19.5 37.3-24.8 27.8-19.5 54.9-43.7 62.9-56.2 11.8-18.5 6.2-37.6-11.1-37.6-5.1 0-18 3.4-26.9 7-7.3 3-53.8 17-56.5 17-.9 0 4.7-5.1 14.9-13.5 25.6-20.9 76.1-72.1 89.5-90.5 24.7-33.9 31.4-51.7 25.6-67.3-1.1-3-3-6.3-4.3-7.4-5.8-5.4-14.3-6.8-21.4-3.6-2.1 1-15.9 10.8-30.8 21.8-14.8 11.1-33.1 24.5-40.5 29.8-7.4 5.3-15.5 11.1-18 12.8-9 6.6-38.4 25.9-39.3 25.9-.5 0 1.3-2.6 4-5.8 20-23.2 45.6-57 62.5-82.4 23.5-35.3 32.5-54.7 31.6-67.8-1-13.7-9.5-23-21-23-2.9 0-6.8 1.2-11.6 3.5-7 3.3-19.1 11.2-22.2 14.5-.8.9-2.8 2.6-4.5 3.9-5.1 3.9-31.3 28.8-59.4 56.5-9 8.8-16.1 15.6-15.9 15.1.3-.6 4.6-7.8 9.5-16 21-34.9 39.3-66.8 40.8-71 4.1-12.4-.2-24.3-10.9-29.4-4-2-10.4-2.6-14.9-1.4zM138.4 143.2c-5.8 4-9 9.2-10.9 18.5-5.2 24.5 4.2 72.7 26.7 137.3 6.1 17.6 20 53.2 20.5 52.7.2-.2-3.3-15.7-7.7-34.3-16.5-68.9-22.8-100.6-25-124.4-1.7-18.7.1-33 4.5-34.6 3.3-1.3 6.6 1.8 14.2 13.3 4.3 6.5 12.5 18 18.3 25.6 5.8 7.6 11.4 15 12.6 16.6 4.8 6.6 27.4 31.2 35.9 39.1l2.7 2.5-2.3-4c-5.4-9.2-32.2-53.2-43.1-70.5-2.2-3.6-7.2-11.7-11-18-8.1-13.3-11.5-17.3-18-20.6-6.7-3.4-11.5-3.1-17.4.8z"/><path d="M268.7 182.7c-5.3 8.8-9.1 16.8-14 29.3-8.1 21-12.1 37.1-15.8 64.5-1.8 13.8-2 18.8-1.5 36 .9 31.2 3.6 49.7 10.7 74 2.9 9.9 9.8 29.3 12.1 33.8 1.1 2.1 1.8 4.3 1.6 4.8-.2.5-3.7-2.1-7.8-5.7-30.5-27.1-71.2-50.1-108-61.1-35.1-10.4-72.4-13.6-108-9.3-9.1 1.2-21 3.8-22.3 4.9-1.7 1.6 27.7 47.9 43.2 68.1 30.8 40.2 63.4 67.5 94.6 79.3 27.9 10.5 58.7 9.3 81.5-3.1 6.1-3.4 11.6-7.3 17-12.1l4.5-4-3.5-3.3c-4.9-4.7-20.2-16.7-28-21.9-19.9-13.5-48.9-27.3-71-33.9-4.1-1.2-9.5-2.8-12-3.5-6.1-1.8-15.2-3.6-15.7-3.1-.3.2 1 .7 2.8 1.1 1.9.4 4 1.1 4.9 1.6.8.4 5.8 2.7 11 4.9 21.5 9.4 51.4 28.4 67 42.7 13.9 12.6 14.5 13.3 13 14.3-4.6 3-18.1 7.1-26.7 8.1-30.1 3.6-60.4-8.6-94.8-38.1-13.9-11.9-37.3-38.6-52.6-60-7.4-10.3-19.9-28.8-19.9-29.5 0-1.2 15.7-2.5 31.6-2.5 57.5 0 112.3 19.5 161.4 57.4 18 13.9 44.5 40.3 56.7 56.6 2.3 3 5.9 7.7 8 10.5 13.3 17.3 30.9 45.7 42 67.7 1.8 3.7 3.8 7 4.3 7.3.7.4 12.5-6.6 16.8-10.1.2-.1-1.1-2.9-2.9-6.1-20.5-37.2-38.1-62.6-62.5-90.7-5.9-6.7-8.1-10.3-12.6-20.6-12.1-27.3-21.5-63.3-25.9-98.4-1.5-12.8-.6-51 1.6-65.6 2.2-13.7 7.5-34.3 12.1-46.6 4.3-11.5 12.4-28.4 13.6-28.4 1.9 0 37.1 36.6 46.7 48.5 26.3 32.8 43 65.8 50.3 99.5 3 14.2 3.3 46.6.5 60.4-3.8 18.7-12.9 41.8-21.9 55.9l-3.2 4.9-3.4-6.8c-11.8-23.1-24.3-58-30.6-85.4-4-17.5-8-40.7-9.5-55.5-.6-5.5-1.3-11.6-1.5-13.5-.2-1.9-.3 8-.1 22 .8 52.1 9.3 99.1 25.9 143.2 4.6 12 13.9 33.3 15.2 34.7.2.2 3-2.4 6.2-5.9 15.7-17.2 30-45.2 36.7-72 4.9-19.3 6.7-45 4.6-64-4.6-40.8-22.5-80.9-52.1-117-13.8-17-38.4-41.7-53.4-53.9-3.8-3.1-8.1-6.6-9.5-7.8-1.4-1.2-2.9-2.2-3.3-2.3-.4 0-2.2 2.6-4.1 5.7z"/></svg>